HIERARCHY
ROOT hip
{
  OFFSET 0 0 0
  CHANNELS 6 Xposition Yposition Zposition Zrotation Yrotation Xrotation
  JOINT abdomen
  {
    OFFSET 0 20.6881 -0.73152
    CHANNELS 3 Zrotation Xrotation Yrotation
    JOINT chest
    {
      OFFSET 0 11.7043 -0.48768
      CHANNELS 3 Zrotation Xrotation Yrotation
      JOINT neck
      {
        OFFSET 0 22.1894 -2.19456
        CHANNELS 3 Zrotation Xrotation Yrotation
        JOINT head
        {
          OFFSET -0.24384 7.07133 1.2192
          CHANNELS 3 Zrotation Xrotation Yrotation
          JOINT leftEye
          {
            OFFSET 4.14528 8.04674 8.04672
            CHANNELS 3 Zrotation Xrotation Yrotation
            End Site
            {
              OFFSET 1 0 0
            }
          }
          JOINT rightEye
          {
            OFFSET -3.6576 8.04674 8.04672
            CHANNELS 3 Zrotation Xrotation Yrotation
            End Site
            {
              OFFSET 1 0 0
            }
          }
        }
      }
      JOINT rCollar
      {
        OFFSET -2.68224 19.2634 -4.8768
        CHANNELS 3 Zrotation Xrotation Yrotation
        JOINT rShldr
        {
          OFFSET -8.77824 -1.95073 1.46304
          CHANNELS 3 Zrotation Xrotation Yrotation
          JOINT rForeArm
          {
            OFFSET -28.1742 -1.7115 0.48768
            CHANNELS 3 Zrotation Xrotation Yrotation
            JOINT rHand
            {
              OFFSET -22.5879 0.773209 7.07136
              CHANNELS 3 Zrotation Xrotation Yrotation
              JOINT rThumb1
              {
                OFFSET -1.2192 -0.487915 3.41376
                CHANNELS 3 Zrotation Xrotation Yrotation
                JOINT rThumb2
                {
                  OFFSET -3.37035 -0.52449 3.41376
                  CHANNELS 3 Zrotation Xrotation Yrotation
                  End Site
                  {
                    OFFSET -1.78271 -1.18214 1.43049
                  }
                }
              }
              JOINT rIndex1
              {
                OFFSET -7.75947 0.938293 5.60832
                CHANNELS 3 Zrotation Xrotation Yrotation
                JOINT rIndex2
                {
                  OFFSET -2.54057 -0.884171 1.56538
                  CHANNELS 3 Zrotation Xrotation Yrotation
                  End Site
                  {
                    OFFSET -1.62519 -0.234802 1.16502
                  }
                }
              }
              JOINT rMid1
              {
                OFFSET -8.24714 1.18213 3.41376
                CHANNELS 3 Zrotation Xrotation Yrotation
                JOINT rMid2
                {
                  OFFSET -3.10165 -0.590103 1.0647
                  CHANNELS 3 Zrotation Xrotation Yrotation
                  End Site
                  {
                    OFFSET -2.48547 -0.328903 0.83742
                  }
                }
              }
              JOINT rRing1
              {
                OFFSET -8.82822 0.546677 1.51678
                CHANNELS 3 Zrotation Xrotation Yrotation
                JOINT rRing2
                {
                  OFFSET -2.60934 -0.819778 -0.0198488
                  CHANNELS 3 Zrotation Xrotation Yrotation
                  End Site
                  {
                    OFFSET -2.33842 -0.294052 0.168128
                  }
                }
              }
              JOINT rPinky1
              {
                OFFSET -8.27202 -0.0477905 -0.4584
                CHANNELS 3 Zrotation Xrotation Yrotation
                JOINT rPinky2
                {
                  OFFSET -1.82734 -0.647385 -0.700984
                  CHANNELS 3 Zrotation Xrotation Yrotation
                  End Site
                  {
                    OFFSET -1.69225 -0.51767 -0.607171
                  }
                }
              }
            }
          }
        }
      }
      JOINT lCollar
      {
        OFFSET 2.68224 19.2634 -4.8768
        CHANNELS 3 Zrotation Xrotation Yrotation
        JOINT lShldr
        {
          OFFSET 8.77824 -1.95073 1.46304
          CHANNELS 3 Zrotation Xrotation Yrotation
          JOINT lForeArm
          {
            OFFSET 28.1742 -1.7115 0.48768
            CHANNELS 3 Zrotation Xrotation Yrotation
            JOINT lHand
            {
              OFFSET 22.5879 0.773209 7.07136
              CHANNELS 3 Zrotation Xrotation Yrotation
              JOINT lThumb1
              {
                OFFSET 1.2192 -0.487915 3.41376
                CHANNELS 3 Zrotation Xrotation Yrotation
                JOINT lThumb2
                {
                  OFFSET 3.37035 -0.52449 3.41376
                  CHANNELS 3 Zrotation Xrotation Yrotation
                  End Site
                  {
                    OFFSET 1.78271 -1.18214 1.43049
                  }
                }
              }
              JOINT lIndex1
              {
                OFFSET 7.75947 0.938293 5.60832
                CHANNELS 3 Zrotation Xrotation Yrotation
                JOINT lIndex2
                {
                  OFFSET 2.54057 -0.884171 1.56538
                  CHANNELS 3 Zrotation Xrotation Yrotation
                  End Site
                  {
                    OFFSET 1.62519 -0.234802 1.16502
                  }
                }
              }
              JOINT lMid1
              {
                OFFSET 8.24714 1.18213 3.41376
                CHANNELS 3 Zrotation Xrotation Yrotation
                JOINT lMid2
                {
                  OFFSET 3.10165 -0.590103 1.0647
                  CHANNELS 3 Zrotation Xrotation Yrotation
                  End Site
                  {
                    OFFSET 2.48547 -0.328903 0.83742
                  }
                }
              }
              JOINT lRing1
              {
                OFFSET 8.82822 0.546677 1.51678
                CHANNELS 3 Zrotation Xrotation Yrotation
                JOINT lRing2
                {
                  OFFSET 2.60934 -0.819778 -0.0198488
                  CHANNELS 3 Zrotation Xrotation Yrotation
                  End Site
                  {
                    OFFSET 2.33842 -0.294052 0.168128
                  }
                }
              }
              JOINT lPinky1
              {
                OFFSET 8.27202 -0.0477905 -0.4584
                CHANNELS 3 Zrotation Xrotation Yrotation
                JOINT lPinky2
                {
                  OFFSET 1.82734 -0.647385 -0.700984
                  CHANNELS 3 Zrotation Xrotation Yrotation
                  End Site
                  {
                    OFFSET 1.69225 -0.51767 -0.607171
                  }
                }
              }
            }
          }
        }
      }
    }
  }
  JOINT rButtock
  {
    OFFSET -8.77824 4.35084 1.2192
    CHANNELS 3 Zrotation Xrotation Yrotation
    JOINT rThigh
    {
      OFFSET 0 -1.70687 -2.19456
      CHANNELS 3 Zrotation Xrotation Yrotation
      JOINT rShin
      {
        OFFSET 0 -36.8199 0.73152
        CHANNELS 3 Zrotation Xrotation Yrotation
        JOINT rFoot
        {
          OFFSET 0.73152 -45.1104 -5.12064
          CHANNELS 3 Zrotation Xrotation Yrotation
          End Site
          {
            OFFSET -1.1221 -3.69964 12.103
          }
        }
      }
    }
  }
  JOINT lButtock
  {
    OFFSET 8.77824 4.35084 1.2192
    CHANNELS 3 Zrotation Xrotation Yrotation
    JOINT lThigh
    {
      OFFSET 0 -1.70687 -2.19456
      CHANNELS 3 Zrotation Xrotation Yrotation
      JOINT lShin
      {
        OFFSET 0 -36.8199 0.73152
        CHANNELS 3 Zrotation Xrotation Yrotation
        JOINT lFoot
        {
          OFFSET -0.73152 -45.1104 -5.12064
          CHANNELS 3 Zrotation Xrotation Yrotation
          End Site
          {
            OFFSET 1.1221 -3.69964 12.103
          }
        }
      }
    }
  }
}
MOTION
Frames:	6
Frame Time:	0.00833333
59.5025 85.0114 -151.49 0.0 0.0 0.0 0.0256063 -6.19184e-06 0.000728838 0.00706477 8.63128e-06 0.00122382 -9.0651e-17 0.0 3.10601e-18 -2.82647e-16 3.18055e-15 9.31803e-18 -0.0 0.0 0.0 -0.0 0.0 0.0 4.83691e-17 -3.88251e-19 1.98785e-16 3.69421e-16 -3.72721e-17 5.96354e-16 -1.47598e-14 2.98177e-15 -3.18055e-15 -1.81316e-13 -1.48095e-14 -6.36111e-15 -4.28742e-13 -2.74084e-14 1.59028e-14 -7.48623e-13 -5.08889e-14 2.46493e-14 -4.24604e-13 -2.62396e-14 3.18055e-15 7.73091 5.47488 0.417314 -4.28083e-13 -2.76311e-14 1.59028e-14 2.90554 0.965183 0.102902 -4.22144e-13 -2.75317e-14 1.66979e-14 10.2786 0.731801 0.0259123 -4.34146e-13 -2.42517e-14 2.22639e-14 2.22167 -0.733487 -0.20892 -1.47764e-16 -5.82377e-19 -1.98785e-16 -1.95358e-15 3.47873e-16 -5.96354e-16 -1.5704e-14 -3.57812e-15 0.0 -1.83273e-13 7.52897e-15 1.90833e-14 -4.27719e-13 2.40889e-15 2.22639e-14 -7.3272e-13 0.0 3.73715e-14 -4.30568e-13 1.98785e-15 3.49861e-14 -7.73091 5.47488 -0.417314 -4.25996e-13 1.68967e-15 1.90833e-14 -2.90554 0.965183 -0.102902 -4.32232e-13 2.08724e-15 1.74931e-14 -10.2786 0.731801 -0.0259123 -4.18641e-13 4.77083e-15 3.18055e-15 -2.22167 -0.733487 0.20892 -2.03217e-16 0.0 -3.88251e-19 0.512303 -3.13364 -0.0420886 -0.00562804 0.123099 -0.0495526 -0.492803 3.00963 0.11736 2.03217e-16 0.0 3.88251e-19 -0.473322 -3.03453 0.0397103 0.00592196 -0.0564348 0.0521748 0.492502 3.09005 -0.118955
60.6253 84.305 -151.932 5.6658 -0.9769 1.4258 -1.38689 1.75317 -1.61046 1.61564 -0.433271 -0.450745 -2.39806 0.592858 -0.690224 1.86139 -0.622925 -0.759611 -0.0 0.0 0.0 -0.0 0.0 0.0 -2.35191e-14 -1.63514e-14 -2.82608e-15 21.66 1.85119 -1.09722 -3.92164 -1.72635 6.18422 0.0143384 2.66168 0.372628 1.5802e-11 -1.02621e-12 1.66694e-10 2.84495e-11 -1.95433e-12 2.87954e-10 1.58098e-11 -1.02481e-12 1.66681e-10 7.73091 5.47488 0.417314 1.58021e-11 -1.02563e-12 1.66694e-10 2.90554 0.965183 0.102902 1.58074e-11 -1.02571e-12 1.66693e-10 10.2786 0.731801 0.0259123 1.57954e-11 -1.02196e-12 1.66698e-10 2.22167 -0.733487 -0.20892 -2.37008e-14 -1.63497e-14 -3.13746e-15 -21.4212 6.70346 -3.32835 4.50453 -2.10669 -6.96946 -0.00893758 2.09875 -0.294247 1.38365e-11 -7.24046e-11 -8.26845e-11 2.29189e-11 -1.26865e-10 -1.43436e-10 1.3832e-11 -7.24059e-11 -8.26697e-11 -7.73091 5.47488 -0.417314 1.38366e-11 -7.24083e-11 -8.26858e-11 -2.90554 0.965183 -0.102902 1.38309e-11 -7.24087e-11 -8.26873e-11 -10.2786 0.731801 -0.0259123 1.3846e-11 -7.24066e-11 -8.27011e-11 -2.22167 -0.733487 0.20892 -2.03217e-16 0.0 -3.88251e-19 -0.710367 -10.4792 0.596913 -0.017765 3.9592 -0.0371794 -0.527739 2.05675 -1.22886 2.03217e-16 0.0 3.88251e-19 -2.86933 -0.976656 -0.369429 0.00652111 4.82443 -0.0251279 0.334202 -0.472939 -2.0726
60.5831 84.209 -151.163 5.6736 -1.0239 1.4753 -2.77432 3.60237 -3.32195 3.30591 -0.892353 -0.929566 -4.91795 1.22549 -1.41802 3.8168 -1.28564 -1.55926 -0.0 0.0 0.0 -0.0 0.0 0.0 -5.27286e-14 -3.5386e-14 -6.2524e-15 44.6365 3.82452 -2.25807 -7.67216 -3.48929 12.7515 -0.00828521 5.45614 0.766578 5.11494e-11 -4.20302e-12 3.79544e-10 9.10519e-11 -7.73213e-12 6.55512e-10 5.11613e-11 -4.20144e-12 3.79531e-10 7.73091 5.47488 0.417314 5.11489e-11 -4.20161e-12 3.79543e-10 2.90554 0.965183 0.102902 5.11534e-11 -4.20188e-12 3.79541e-10 10.2786 0.731801 0.0259123 5.11414e-11 -4.19756e-12 3.79546e-10 2.22167 -0.733487 -0.20892 -5.28978e-14 -3.53824e-14 -6.46982e-15 -43.1896 13.717 -7.00358 8.71013 -4.22727 -14.3619 0.00510104 4.30821 -0.605357 3.7577e-11 -1.35921e-10 -1.63949e-10 6.28573e-11 -2.3859e-10 -2.84523e-10 3.75708e-11 -1.35923e-10 -1.63932e-10 -7.73091 5.47488 -0.417314 3.75753e-11 -1.35928e-10 -1.63948e-10 -2.90554 0.965183 -0.102902 3.75702e-11 -1.35929e-10 -1.6395e-10 -10.2786 0.731801 -0.0259123 3.75872e-11 -1.35928e-10 -1.63963e-10 -2.22167 -0.733487 0.20892 -2.03217e-16 0.0 -3.88251e-19 -1.83088 -18.2501 1.30853 -0.0322889 7.97554 -0.0248959 -0.615187 1.02523 -2.66969 2.03217e-16 0.0 3.88251e-19 -5.37458 1.17746 -0.791152 0.0217963 9.97103 -0.107652 -0.0994584 -4.24894 -4.14845
60.5905 84.1464 -150.381 5.8799 -0.9214 1.4294 -3.91541 5.24287 -4.85092 4.81229 -1.29951 -1.35499 -7.15132 1.77754 -2.07156 5.53462 -1.86746 -2.27991 -0.0 0.0 0.0 -0.0 0.0 0.0 -7.0654e-14 -4.90534e-14 -8.87581e-15 65.1936 5.54542 -3.30544 -10.6651 -4.93817 18.6158 -0.061706 7.98368 1.12761 4.82635e-11 -3.0238e-12 5.0005e-10 8.68459e-11 -5.7612e-12 8.63812e-10 4.82787e-11 -3.02194e-12 5.00037e-10 7.73091 5.47488 0.417314 4.82624e-11 -3.02162e-12 5.00049e-10 2.90554 0.965183 0.102902 4.82664e-11 -3.02207e-12 5.00045e-10 10.2786 0.731801 0.0259123 4.82544e-11 -3.01738e-12 5.0005e-10 2.22167 -0.733487 -0.20892 -7.0807e-14 -4.9048e-14 -9.01481e-15 -61.8158 19.8303 -10.5488 12.007 -5.94682 -21.0126 0.0381882 6.29557 -0.887501 4.23648e-11 -2.17219e-10 -2.48098e-10 7.0222e-11 -3.80594e-10 -4.30383e-10 4.23572e-11 -2.17222e-10 -2.48079e-10 -7.73091 5.47488 -0.417314 4.23617e-11 -2.17228e-10 -2.48096e-10 -2.90554 0.965183 -0.102902 4.23571e-11 -2.1723e-10 -2.48097e-10 -10.2786 0.731801 -0.0259123 4.23754e-11 -2.17229e-10 -2.4811e-10 -2.22167 -0.733487 0.20892 -2.03217e-16 0.0 -3.88251e-19 -2.61918 -25.1579 2.03835 -0.0470227 11.6314 -0.0124221 -0.731852 0.152026 -3.91861 2.03217e-16 0.0 3.88251e-19 -7.57315 3.13836 -1.18922 0.0481832 14.5861 -0.185443 -0.714617 -7.55826 -6.03262
60.5063 84.1174 -149.612 5.844 -0.7529 1.4362 -4.65116 6.37769 -5.90625 5.87358 -1.57716 -1.64663 -8.69913 2.12911 -2.53855 6.69363 -2.24829 -2.80198 -0.0 0.0 0.0 -0.0 0.0 0.0 -6.03687e-14 -4.93025e-14 -9.49197e-15 79.5489 6.64312 -4.05546 -12.5406 -5.83503 22.6612 -0.120375 9.84517 1.39757 -5.02057e-11 9.0455e-12 3.89697e-10 -8.43813e-11 1.55815e-11 6.73964e-10 -5.01896e-11 9.04788e-12 3.89685e-10 7.73091 5.47488 0.417314 -5.02071e-11 9.04828e-12 3.89697e-10 2.90554 0.965183 0.102902 -5.02035e-11 9.04768e-12 3.89693e-10 10.2786 0.731801 0.0259123 -5.02152e-11 9.05226e-12 3.89697e-10 2.22167 -0.733487 -0.20892 -6.04964e-14 -4.92957e-14 -9.59136e-15 -74.36 23.961 -13.23 14.0773 -7.017 -25.7098 0.0738174 7.72828 -1.09284 -2.29006e-13 -3.42969e-10 -3.39457e-10 -3.84768e-12 -5.98294e-10 -5.88178e-10 -2.37349e-13 -3.42973e-10 -3.39438e-10 -7.73091 5.47488 -0.417314 -2.32727e-13 -3.42979e-10 -3.39454e-10 -2.90554 0.965183 -0.102902 -2.36995e-13 -3.42981e-10 -3.39455e-10 -10.2786 0.731801 -0.0259123 -2.18663e-13 -3.42981e-10 -3.39467e-10 -2.22167 -0.733487 0.20892 -2.03217e-16 0.0 -3.88251e-19 -2.95796 -29.9188 2.66931 -0.0593593 14.3861 0.000466653 -0.818795 -0.328221 -4.68836 2.03217e-16 0.0 3.88251e-19 -9.0619 4.61692 -1.52594 0.0742204 17.8723 -0.245908 -1.25927 -9.74239 -7.37618
60.3886 84.0594 -148.831 5.7594 -0.7072 1.4584 -4.94629 6.82393 -6.28385 6.32404 -1.67508 -1.75057 -9.29666 2.19712 -2.74253 7.08533 -2.33945 -3.04396 -0.0 0.0 0.0 -0.0 0.0 0.0 -5.24762e-15 -2.94616e-14 -7.44355e-15 85.1539 6.86794 -4.38176 -13.1699 -6.11353 24.1104 -0.154281 10.794 1.53653 -2.85145e-10 2.38718e-11 -1.00295e-10 -4.94473e-10 4.25594e-11 -1.70901e-10 -2.85132e-10 2.38752e-11 -1.00308e-10 7.73091 5.47488 0.417314 -2.85147e-10 2.3875e-11 -1.00293e-10 2.90554 0.965183 0.102902 -2.85143e-10 2.38743e-11 -1.00298e-10 10.2786 0.731801 0.0259123 -2.85154e-10 2.38778e-11 -1.00294e-10 2.22167 -0.733487 -0.20892 -5.3299e-15 -2.94537e-14 -7.56585e-15 -79.2474 25.5225 -14.3139 14.8708 -7.4264 -27.6297 0.0929282 8.39719 -1.18931 -9.71533e-11 -5.08815e-10 -4.39996e-10 -1.71047e-10 -8.83593e-10 -7.61194e-10 -9.71613e-11 -5.0882e-10 -4.3998e-10 -7.73091 5.47488 -0.417314 -9.71561e-11 -5.08822e-10 -4.39994e-10 -2.90554 0.965183 -0.102902 -9.71604e-11 -5.08824e-10 -4.39993e-10 -10.2786 0.731801 -0.0259123 -9.71442e-11 -5.08824e-10 -4.40004e-10 -2.22167 -0.733487 0.20892 -2.03217e-16 0.0 -3.88251e-19 -2.88177 -31.6988 3.0584 -0.0673459 15.9506 0.0166035 -0.830963 -0.362043 -4.78777 2.03217e-16 0.0 3.88251e-19 -9.60066 5.44525 -1.74164 0.0858581 19.269 -0.278643 -1.47155 -10.4462 -7.89468
